<?xml version="1.0" encoding="UTF-8" standalone="no"?>
<!-- Created with Inkscape (http://www.inkscape.org/) -->

<svg
   xmlns:dc="http://purl.org/dc/elements/1.1/"
   xmlns:cc="http://creativecommons.org/ns#"
   xmlns:rdf="http://www.w3.org/1999/02/22-rdf-syntax-ns#"
   xmlns:svg="http://www.w3.org/2000/svg"
   xmlns="http://www.w3.org/2000/svg"
   xmlns:sodipodi="http://sodipodi.sourceforge.net/DTD/sodipodi-0.dtd"
   xmlns:inkscape="http://www.inkscape.org/namespaces/inkscape"
   width="214.1109mm"
   height="63.101402mm"
   viewBox="0 0 214.1109 63.101403"
   version="1.1"
   id="svg8"
   inkscape:version="0.92.2 2405546, 2018-03-11"
   sodipodi:docname="freeing_routers.svg"
   inkscape:export-filename="/home/ilario/projects/libremesh/presentation-hackmeeting_es_2018-reveal.js/img/freeing_routers.png"
   inkscape:export-xdpi="150"
   inkscape:export-ydpi="150">
  <defs
     id="defs2" />
  <sodipodi:namedview
     id="base"
     pagecolor="#ffffff"
     bordercolor="#666666"
     borderopacity="1.0"
     inkscape:pageopacity="0.0"
     inkscape:pageshadow="2"
     inkscape:zoom="0.7"
     inkscape:cx="433.26366"
     inkscape:cy="189.27863"
     inkscape:document-units="mm"
     inkscape:current-layer="layer1"
     showgrid="false"
     fit-margin-top="0"
     fit-margin-left="0"
     fit-margin-right="0"
     fit-margin-bottom="0"
     inkscape:window-width="1600"
     inkscape:window-height="836"
     inkscape:window-x="0"
     inkscape:window-y="27"
     inkscape:window-maximized="1" />
  <metadata
     id="metadata5">
    <rdf:RDF>
      <cc:Work
         rdf:about="">
        <dc:format>image/svg+xml</dc:format>
        <dc:type
           rdf:resource="http://purl.org/dc/dcmitype/StillImage" />
        <dc:title></dc:title>
      </cc:Work>
    </rdf:RDF>
  </metadata>
  <g
     inkscape:label="Layer 1"
     inkscape:groupmode="layer"
     id="layer1"
     transform="translate(-13.760856,-43.295452)">
    <rect
       style="opacity:1;fill:#490255;fill-opacity:1;stroke:#000000;stroke-width:0.1377869;stroke-linecap:round;stroke-linejoin:round;stroke-miterlimit:4;stroke-dasharray:none;stroke-dashoffset:0;stroke-opacity:1;paint-order:markers fill stroke"
       id="rect3759-37"
       width="18.453602"
       height="18.453602"
       x="13.829749"
       y="54.621044" />
    <rect
       style="opacity:1;fill:#490255;fill-opacity:1;stroke:#000000;stroke-width:0.1377869;stroke-linecap:round;stroke-linejoin:round;stroke-miterlimit:4;stroke-dasharray:none;stroke-dashoffset:0;stroke-opacity:1;paint-order:markers fill stroke"
       id="rect3761-59"
       width="3.6907201"
       height="11.256698"
       x="13.829749"
       y="43.364346" />
    <rect
       style="opacity:1;fill:#490255;fill-opacity:1;stroke:#000000;stroke-width:0.1377869;stroke-linecap:round;stroke-linejoin:round;stroke-miterlimit:4;stroke-dasharray:none;stroke-dashoffset:0;stroke-opacity:1;paint-order:markers fill stroke"
       id="rect3761-7-22"
       width="3.6907201"
       height="11.256698"
       x="28.59263"
       y="43.364361" />
    <rect
       style="opacity:1;fill:#490255;fill-opacity:1;stroke:#000000;stroke-width:0.1377869;stroke-linecap:round;stroke-linejoin:round;stroke-miterlimit:4;stroke-dasharray:none;stroke-dashoffset:0;stroke-opacity:1;paint-order:markers fill stroke"
       id="rect3761-5-89"
       width="3.6907201"
       height="11.256698"
       x="21.654072"
       y="43.364346" />
    <path
       inkscape:connector-curvature="0"
       style="fill:#a6a6a6;stroke-width:0.00264583"
       d="m 148.78098,66.804695 c 0,0.16669 0.0212,0.40481 0.1323,0.53975 0.0794,0.0926 0.16933,0.14023 0.29104,0.14023 0.12171,0 0.21431,-0.0423 0.29104,-0.13494 0.11112,-0.13229 0.12964,-0.39158 0.12964,-0.55562 0,-0.16405 -0.0185,-0.39159 -0.13229,-0.52388 -0.0767,-0.09 -0.16139,-0.13494 -0.28046,-0.13494 -0.12435,0 -0.2196,0.045 -0.29897,0.14023 -0.11113,0.13229 -0.1323,0.36248 -0.1323,0.52917 z m -4.14602,-0.0185 c 0,-0.14552 -0.0185,-0.34396 -0.11641,-0.46038 -0.0714,-0.082 -0.15082,-0.11906 -0.2593,-0.11906 -0.09,0 -0.15081,0.037 -0.20637,0.10584 -0.0926,0.11377 -0.10583,0.36512 -0.10583,0.5027 0,0.14023 0.0159,0.36248 0.11112,0.47625 0.0582,0.0714 0.12436,0.11113 0.21696,0.11113 0.10319,0 0.17992,-0.0397 0.24606,-0.11642 0.0979,-0.11641 0.11377,-0.35719 0.11377,-0.50006 z m -4.69371,-0.53181 c -0.0212,-0.0582 -0.0503,-0.11377 -0.0873,-0.15082 -0.0767,-0.0767 -0.17462,-0.0979 -0.28045,-0.0979 -0.13759,0 -0.23813,0.0503 -0.3228,0.1614 -0.0185,0.0265 -0.0344,0.0556 -0.0503,0.09 h 0.74084 z m -4.826,0 c -0.0212,-0.0582 -0.0503,-0.11377 -0.0873,-0.15082 -0.0767,-0.0767 -0.17462,-0.0979 -0.28045,-0.0979 -0.13759,0 -0.23813,0.0503 -0.3228,0.1614 -0.0185,0.0265 -0.0344,0.0556 -0.0503,0.09 h 0.74084 z m -23.6802,0 c -0.0212,-0.0582 -0.0503,-0.11377 -0.0873,-0.15082 -0.0767,-0.0767 -0.17463,-0.0979 -0.28046,-0.0979 -0.13759,0 -0.23813,0.0503 -0.32279,0.1614 -0.0185,0.0265 -0.0344,0.0556 -0.0503,0.09 h 0.74083 z m -7.39512,0 c -0.0212,-0.0582 -0.0503,-0.11377 -0.0873,-0.15082 -0.0767,-0.0767 -0.17462,-0.0979 -0.28046,-0.0979 -0.13758,0 -0.23812,0.0503 -0.32279,0.1614 -0.0185,0.0265 -0.0344,0.0556 -0.0503,0.09 h 0.74084 z m 49.64907,-1.2409 c 0.0635,-0.045 0.1323,-0.0847 0.20109,-0.11906 0.24077,-0.11642 0.508,-0.15875 0.77258,-0.15875 0.26988,0 0.55563,0.0423 0.78846,0.18256 0.12171,0.0741 0.2249,0.16404 0.31221,0.26988 0.13229,-0.12171 0.28046,-0.23284 0.43656,-0.30692 0.23283,-0.10848 0.49213,-0.14552 0.74613,-0.14552 0.39952,0 0.77258,0.11377 1.05304,0.40746 0.30162,0.32014 0.381,0.78316 0.381,1.2065 v 2.43152 h -1.82563 v -2.23044 c 0,-0.0503 -0.005,-0.1614 -0.0397,-0.20373 l -0.005,-0.0106 c -0.037,-0.0503 -0.0767,-0.0847 -0.14023,-0.0847 -0.082,0 -0.14552,0.0238 -0.19843,0.0873 -0.0767,0.09 -0.0873,0.28575 -0.0873,0.39688 v 2.04523 h -1.82562 v -2.159 c 0,-0.0556 0,-0.18521 -0.0159,-0.23813 -0.0132,-0.0397 -0.0344,-0.0714 -0.0662,-0.0952 -0.0291,-0.0238 -0.0635,-0.0317 -0.10319,-0.0317 -0.082,0 -0.14552,0.0265 -0.19844,0.09 -0.0794,0.0926 -0.0926,0.30163 -0.0926,0.41804 v 2.01877 h -1.82562 v -3.96346 h 1.73302 z m -6.73364,1.79388 c 0,-0.5768 0.19314,-1.0848 0.61383,-1.48961 0.4445,-0.42598 1.01865,-0.58208 1.62719,-0.58208 0.6694,0 1.31498,0.17462 1.77006,0.68792 0.34131,0.38629 0.49213,0.85195 0.49213,1.3626 0,0.57679 -0.18786,1.08744 -0.60854,1.49225 -0.44715,0.43127 -1.03982,0.58208 -1.64836,0.58208 -0.55033,0 -1.08744,-0.127 -1.51871,-0.48154 -0.48948,-0.40481 -0.7276,-0.93927 -0.7276,-1.57162 z m -2.23044,1.79123 c -0.0423,0.0317 -0.0873,0.0582 -0.12964,0.082 -0.23548,0.12435 -0.49478,0.17991 -0.75936,0.17991 -0.5371,0 -0.98425,-0.20373 -1.29117,-0.64558 -0.30162,-0.43127 -0.42068,-0.93398 -0.42068,-1.45256 0,-0.53182 0.11112,-1.08215 0.47889,-1.48696 0.32809,-0.36248 0.74877,-0.53975 1.23825,-0.53975 0.22754,0 0.44979,0.037 0.66146,0.12171 0.0423,0.0185 0.082,0.037 0.12436,0.0582 v -1.42082 h 1.83885 v 5.28638 h -1.73831 v -0.18256 z m -5.51921,-1.23032 c 0.0159,0.0318 0.0318,0.0609 0.0529,0.0847 0.09,0.10055 0.19315,0.14288 0.32809,0.14288 0.0926,0 0.17991,-0.0212 0.25929,-0.0661 0.0582,-0.0318 0.12435,-0.10583 0.16404,-0.15875 l 0.003,-0.003 z m 1.95263,0 0.762,0.0688 -0.18786,0.3228 c -0.20108,0.3466 -0.46831,0.65352 -0.82814,0.84402 -0.39423,0.20902 -0.90752,0.25664 -1.34673,0.25664 -0.39688,0 -0.84402,-0.045 -1.20386,-0.2196 -0.32279,-0.15875 -0.57414,-0.40481 -0.762,-0.70909 -0.21166,-0.34131 -0.29897,-0.7276 -0.29897,-1.12712 0,-0.57679 0.17991,-1.09273 0.6006,-1.4949 0.44185,-0.42333 1.02129,-0.5715 1.6219,-0.5715 0.43127,0 0.91281,0.0529 1.2991,0.254 0.33337,0.17463 0.59002,0.42598 0.76729,0.75671 0.19844,0.37306 0.25665,0.81492 0.25665,1.23296 v 0.38894 h -0.67998 z m -6.77863,0 c 0.0159,0.0318 0.0317,0.0609 0.0529,0.0847 0.0873,0.10055 0.19315,0.14288 0.32809,0.14288 0.0926,0 0.17991,-0.0212 0.25929,-0.0661 0.0582,-0.0318 0.12435,-0.10583 0.16404,-0.15875 l 0.003,-0.003 z m 1.95263,0 0.762,0.0688 -0.18786,0.3228 c -0.20108,0.3466 -0.46831,0.65352 -0.82814,0.84402 -0.39423,0.20902 -0.90752,0.25664 -1.34673,0.25664 -0.39688,0 -0.84402,-0.045 -1.20386,-0.2196 -0.32279,-0.15875 -0.57414,-0.40481 -0.762,-0.70909 -0.21166,-0.34131 -0.29633,-0.7276 -0.29633,-1.12712 0,-0.57679 0.17992,-1.09273 0.60061,-1.4949 0.44185,-0.42333 1.02129,-0.5715 1.62189,-0.5715 0.43127,0 0.91281,0.0529 1.29911,0.254 0.33337,0.17463 0.59002,0.42598 0.76729,0.75671 0.19843,0.37306 0.25664,0.81492 0.25664,1.23296 v 0.38894 h -0.68262 z m -5.36575,-2.45268 c 0.17991,-0.12965 0.39158,-0.17992 0.61383,-0.17992 0.26723,0 0.52917,0.09 0.76465,0.21167 l 0.19579,0.10318 -0.60061,1.36525 -0.21695,-0.09 c -0.0741,-0.0317 -0.20373,-0.0794 -0.28575,-0.0794 -0.0952,0 -0.15875,0.0344 -0.21167,0.11113 -0.15081,0.22489 -0.16669,0.75142 -0.16669,1.01071 v 1.41023 h -1.83091 v -3.96346 h 1.73831 z m -4.27302,0.0873 v 0.36512 h 1.88118 v 1.44992 h -1.87854 v 1.96321 h -1.98437 v -5.28903 h 4.17777 v 1.51078 z m -6.38175,1.02658 c -0.0106,-0.0185 -0.0238,-0.037 -0.0423,-0.0503 -0.0714,-0.0476 -0.1614,-0.0635 -0.24871,-0.0635 -0.037,0 -0.14023,0.005 -0.17727,0.0265 0.10583,0.045 0.35983,0.0767 0.46831,0.0873 z m 0.17727,1.53194 c -0.005,-0.005 -0.0159,-0.0106 -0.0212,-0.0132 -0.0979,-0.0476 -0.39688,-0.0952 -0.508,-0.11378 -0.0503,-0.008 -0.10054,-0.0159 -0.15346,-0.0265 0.0265,0.0688 0.0688,0.14553 0.127,0.18521 0.0714,0.0476 0.17727,0.0609 0.26194,0.0609 0.0847,0 0.20108,-0.0106 0.26987,-0.0635 l 0.008,-0.005 c 0.003,-0.005 0.0106,-0.0132 0.0159,-0.0238 z m -1.37319,-0.30692 c -0.0608,-0.0185 -0.11642,-0.037 -0.17198,-0.0582 -0.23019,-0.0873 -0.41804,-0.23548 -0.56356,-0.42862 -0.15875,-0.20902 -0.23283,-0.44715 -0.23283,-0.70644 0,-0.27517 0.0794,-0.52652 0.254,-0.74348 0.17197,-0.21431 0.40216,-0.35983 0.6641,-0.44979 0.3175,-0.11113 0.69056,-0.13759 1.02658,-0.13759 0.30957,0 0.70115,0.0106 0.99748,0.10584 0.2249,0.0714 0.42863,0.18785 0.59531,0.35454 0.17463,0.17462 0.29634,0.39687 0.38365,0.62442 l 0.11377,0.29104 -0.94192,0.09 c 0.0503,0.0159 0.0979,0.0344 0.14553,0.0529 0.24341,0.10054 0.45508,0.25135 0.60589,0.46831 0.14288,0.20373 0.21696,0.43392 0.21696,0.68263 0,0.25929 -0.082,0.50006 -0.22225,0.71702 -0.16404,0.254 -0.4101,0.42598 -0.68263,0.54504 -0.35454,0.15081 -0.78581,0.18785 -1.16945,0.18785 -0.47096,0 -1.09802,-0.045 -1.50284,-0.31485 -0.33073,-0.21961 -0.53446,-0.53446 -0.62177,-0.91811 l -0.0609,-0.26458 z m -3.25173,-1.22502 c -0.0106,-0.0185 -0.0265,-0.037 -0.0423,-0.0503 -0.0714,-0.0476 -0.16139,-0.0635 -0.24871,-0.0635 -0.037,0 -0.14023,0.005 -0.17727,0.0265 0.10584,0.045 0.36248,0.0767 0.46831,0.0873 z m 0.17727,1.53194 c -0.005,-0.005 -0.0159,-0.0106 -0.0212,-0.0132 -0.0979,-0.0476 -0.39687,-0.0952 -0.508,-0.11377 -0.0503,-0.008 -0.10054,-0.0159 -0.15346,-0.0265 0.0265,0.0688 0.0688,0.14552 0.127,0.18521 0.0714,0.0476 0.17728,0.0608 0.26194,0.0608 0.0847,0 0.20109,-0.0106 0.26988,-0.0635 l 0.008,-0.005 c 0.005,-0.005 0.0132,-0.0132 0.0159,-0.0238 z m -1.37319,-0.30692 c -0.0608,-0.0185 -0.11641,-0.037 -0.17197,-0.0582 -0.23019,-0.0873 -0.41805,-0.23548 -0.56357,-0.42862 -0.15875,-0.20902 -0.23548,-0.44715 -0.23548,-0.70644 0,-0.27517 0.0794,-0.52652 0.254,-0.74348 0.17198,-0.21431 0.40217,-0.35983 0.66146,-0.44979 0.3175,-0.11113 0.69056,-0.13759 1.02659,-0.13759 0.30956,0 0.70114,0.0106 0.99747,0.10584 0.2249,0.0714 0.42863,0.18785 0.59532,0.35454 0.17462,0.17462 0.29633,0.39687 0.38364,0.62442 l 0.11113,0.29104 -0.94192,0.09 c 0.0503,0.0159 0.10054,0.0344 0.14552,0.0529 0.24342,0.10054 0.45509,0.25135 0.6059,0.46831 0.14287,0.20373 0.21696,0.43392 0.21696,0.68263 0,0.25929 -0.082,0.50006 -0.21961,0.71702 -0.16404,0.254 -0.4101,0.42598 -0.68262,0.54504 -0.35454,0.15081 -0.78846,0.18785 -1.16946,0.18785 -0.47096,0 -1.10067,-0.045 -1.50283,-0.31485 -0.33073,-0.21961 -0.53446,-0.53446 -0.62178,-0.91811 l -0.0608,-0.26458 z m -3.96875,0.11377 c 0.0159,0.0318 0.0318,0.0609 0.0529,0.0847 0.0873,0.10054 0.19315,0.14288 0.32809,0.14288 0.0926,0 0.17991,-0.0212 0.26194,-0.0661 0.0582,-0.0318 0.12435,-0.10584 0.16404,-0.15875 l 0.003,-0.003 z m 1.95263,0 0.762,0.0688 -0.18785,0.32279 c -0.20109,0.34661 -0.46832,0.65353 -0.82815,0.84403 -0.39423,0.20902 -0.90488,0.25664 -1.34673,0.25664 -0.39687,0 -0.84137,-0.045 -1.20385,-0.2196 -0.3228,-0.15875 -0.57415,-0.40482 -0.762,-0.70909 -0.21167,-0.34131 -0.29634,-0.7276 -0.29634,-1.12712 0,-0.57679 0.17992,-1.09273 0.60061,-1.4949 0.44185,-0.42333 1.02129,-0.5715 1.62189,-0.5715 0.43127,0 0.91282,0.0529 1.29911,0.254 0.33337,0.17463 0.59002,0.42598 0.76729,0.75671 0.19844,0.37306 0.254,0.81492 0.254,1.23296 v 0.38894 h -0.67998 z m -6.21506,-3.87614 h 1.82562 v 5.28637 h -1.82562 z m -3.13268,3.87614 c 0.0159,0.0318 0.0317,0.0609 0.0529,0.0847 0.09,0.10054 0.19315,0.14288 0.32808,0.14288 0.0926,0 0.17992,-0.0212 0.26194,-0.0661 0.0582,-0.0318 0.12436,-0.10584 0.16404,-0.15875 l 0.003,-0.003 z m 1.95264,0 0.762,0.0688 -0.18786,0.32279 c -0.20108,0.34661 -0.46831,0.65353 -0.82814,0.84403 -0.39423,0.20902 -0.90489,0.25664 -1.34674,0.25664 -0.39688,0 -0.84402,-0.045 -1.20386,-0.2196 -0.32279,-0.15875 -0.57415,-0.40482 -0.76201,-0.70909 -0.21166,-0.34131 -0.29898,-0.7276 -0.29898,-1.12712 0,-0.57679 0.17992,-1.09273 0.60061,-1.4949 0.44186,-0.42333 1.0213,-0.5715 1.6219,-0.5715 0.43127,0 0.91283,0.0529 1.29912,0.254 0.33337,0.17463 0.59002,0.42598 0.76729,0.75671 0.19844,0.37306 0.254,0.81492 0.254,1.23296 v 0.38894 h -0.67733 z m -5.365776,-2.45269 c 0.182556,-0.12964 0.391576,-0.17991 0.613826,-0.17991 0.26724,0 0.52918,0.09 0.76465,0.21166 l 0.19844,0.10319 -0.6006,1.36525 -0.21696,-0.09 c -0.0741,-0.0317 -0.20374,-0.0794 -0.28576,-0.0794 -0.0953,0 -0.15875,0.0344 -0.21167,0.11113 -0.15081,0.22489 -0.166676,0.75141 -0.166676,1.01071 v 1.41023 h -1.83092 v -3.96346 h 1.73831 v 0.10054 z m -9.81605,0.4498 0.52123,-1.87325 h 1.77271 l 0.52917,1.88383 0.35983,-1.88119 h 1.91029 l -1.1721,5.28638 h -1.8415 l -0.66675,-2.37861 -0.66146,2.37861 h -1.83885 l -1.18269,-5.28638 h 1.91823 z m 7.366,-0.55034 v 3.96346 h -1.82562 v -5.28637 h 1.82562 z"
       id="path128" />
    <path
       inkscape:connector-curvature="0"
       style="fill:#000000;stroke-width:0.00264583"
       d="m 152.19675,65.053155 h 1.25413 v 0.508 c 0.17992,-0.21167 0.36248,-0.36513 0.54769,-0.45244 0.18256,-0.09 0.40481,-0.13494 0.66675,-0.13494 0.28046,0 0.50006,0.0503 0.6641,0.14817 0.16404,0.0979 0.29633,0.24606 0.39952,0.43921 0.21167,-0.22754 0.40217,-0.38365 0.57679,-0.46567 0.17463,-0.082 0.38894,-0.12435 0.64294,-0.12435 0.37571,0 0.6694,0.11112 0.87842,0.33337 0.21166,0.22225 0.3175,0.56886 0.3175,1.04246 v 2.19075 h -1.34409 v -1.99231 c 0,-0.15875 -0.0318,-0.27781 -0.0926,-0.3519 -0.09,-0.12171 -0.20108,-0.17991 -0.33337,-0.17991 -0.15875,0 -0.28575,0.0582 -0.381,0.17197 -0.0953,0.11378 -0.14553,0.29898 -0.14553,0.55034 v 1.80446 h -1.34672 v -1.92088 c 0,-0.15346 -0.008,-0.25664 -0.0265,-0.31221 -0.0291,-0.0873 -0.0767,-0.15875 -0.14817,-0.21166 -0.0688,-0.0529 -0.15346,-0.0794 -0.24871,-0.0794 -0.15346,0 -0.28046,0.0582 -0.381,0.17462 -0.10054,0.11642 -0.14817,0.30692 -0.14817,0.5715 v 1.78065 H 152.202 v -3.48986 z m -3.65654,1.75154 c 0,0.31221 0.0635,0.54504 0.1905,0.69321 0.127,0.14816 0.28311,0.22489 0.47625,0.22489 0.19315,0 0.3519,-0.0741 0.47361,-0.2196 0.12435,-0.14817 0.18521,-0.38365 0.18521,-0.70908 0,-0.30427 -0.0608,-0.52917 -0.18786,-0.67734 -0.12435,-0.14816 -0.28046,-0.22225 -0.46567,-0.22225 -0.19579,0 -0.35718,0.0741 -0.48418,0.2249 -0.12436,0.15081 -0.18786,0.37835 -0.18786,0.68527 z m -1.34408,0.003 c 0,-0.53446 0.17992,-0.97102 0.5424,-1.31763 0.35983,-0.34395 0.84666,-0.51858 1.4605,-0.51858 0.70114,0 1.23295,0.20373 1.59014,0.60854 0.2884,0.32809 0.43127,0.73025 0.43127,1.2065 0,0.53711 -0.17727,0.97632 -0.53446,1.32027 -0.35718,0.34132 -0.85195,0.5133 -1.48431,0.5133 -0.56092,0 -1.01864,-0.14288 -1.36525,-0.42863 -0.42862,-0.34925 -0.64029,-0.81227 -0.64029,-1.38377 z m -2.32304,-0.0238 c 0,-0.27517 -0.0582,-0.4789 -0.17463,-0.61383 -0.11641,-0.13494 -0.26458,-0.20373 -0.44185,-0.20373 -0.15611,0 -0.28575,0.0635 -0.39158,0.19579 -0.10584,0.12964 -0.15875,0.3466 -0.15875,0.65087 0,0.28575 0.0556,0.49477 0.16404,0.62707 0.10848,0.13229 0.24341,0.19843 0.40481,0.19843 0.17198,0 0.31485,-0.0661 0.42862,-0.20108 0.11378,-0.12965 0.16934,-0.34925 0.16934,-0.65352 z m 1.34937,-3.05329 v 4.81012 h -1.25941 v -0.51594 c -0.17463,0.21961 -0.33602,0.36778 -0.48155,0.44715 -0.19314,0.10054 -0.4101,0.15081 -0.64558,0.15081 -0.47625,0 -0.84137,-0.17991 -1.09537,-0.54239 -0.25136,-0.36248 -0.37836,-0.80169 -0.37836,-1.31763 0,-0.57944 0.14023,-1.02129 0.41804,-1.32821 0.27782,-0.30691 0.63236,-0.46037 1.06098,-0.46037 0.20902,0 0.39952,0.0344 0.56886,0.10319 0.17198,0.0714 0.32279,0.17462 0.45508,0.31485 v -1.66158 z m -5.98752,2.76225 c -0.0265,-0.25929 -0.0979,-0.44715 -0.21166,-0.55827 -0.11378,-0.11113 -0.26194,-0.16934 -0.44715,-0.16934 -0.21431,0 -0.38629,0.0847 -0.51329,0.254 -0.082,0.10584 -0.13229,0.26194 -0.15611,0.47096 h 1.32821 z m 1.36525,0.63764 h -2.69875 c 0.0238,0.21432 0.082,0.37307 0.17727,0.4789 0.12965,0.15081 0.29898,0.22489 0.51065,0.22489 0.13229,0 0.25929,-0.0317 0.37835,-0.0979 0.0741,-0.0423 0.15082,-0.11377 0.23548,-0.21695 l 1.32556,0.1217 c -0.20372,0.34925 -0.44714,0.60061 -0.73289,0.75407 -0.28575,0.15081 -0.6985,0.22754 -1.23296,0.22754 -0.46567,0 -0.83079,-0.0635 -1.09802,-0.19579 -0.26458,-0.12965 -0.48683,-0.33602 -0.66146,-0.62177 -0.17462,-0.28311 -0.26194,-0.61913 -0.26194,-1.00013 0,-0.54504 0.17463,-0.9869 0.52652,-1.32556 0.3519,-0.33602 0.83609,-0.50536 1.45521,-0.50536 0.50271,0 0.89959,0.0767 1.18798,0.22755 0.2884,0.15081 0.51329,0.37041 0.66411,0.65616 0.15081,0.2884 0.22754,0.66146 0.22754,1.12184 v 0.15081 z m -6.19125,-0.63764 c -0.0265,-0.25929 -0.0979,-0.44715 -0.21166,-0.55827 -0.11378,-0.11113 -0.26194,-0.16934 -0.44715,-0.16934 -0.21431,0 -0.38629,0.0847 -0.51329,0.254 -0.082,0.10584 -0.13229,0.26194 -0.15611,0.47096 h 1.32821 z m 1.36525,0.63764 h -2.69875 c 0.0238,0.21432 0.082,0.37307 0.17463,0.4789 0.12964,0.15081 0.29898,0.22489 0.51064,0.22489 0.13229,0 0.25929,-0.0317 0.37836,-0.0979 0.0741,-0.0423 0.15081,-0.11377 0.23548,-0.21695 l 1.32556,0.1217 c -0.20373,0.34925 -0.44715,0.60061 -0.7329,0.75407 -0.28575,0.15081 -0.6985,0.22754 -1.23296,0.22754 -0.46566,0 -0.83079,-0.0635 -1.09802,-0.19579 -0.26723,-0.12965 -0.48683,-0.33602 -0.66145,-0.62177 -0.17463,-0.28311 -0.26194,-0.61913 -0.26194,-1.00013 0,-0.54504 0.17727,-0.9869 0.52652,-1.32556 0.35189,-0.33602 0.83608,-0.50536 1.45521,-0.50536 0.50271,0 0.89958,0.0767 1.18798,0.22755 0.29104,0.15081 0.51329,0.37041 0.6641,0.65616 0.15081,0.2884 0.22754,0.66146 0.22754,1.12184 z m -7.30779,-2.07693 h 1.25942 v 0.56885 c 0.12171,-0.24871 0.24606,-0.41804 0.37571,-0.51064 0.12964,-0.0926 0.28839,-0.13759 0.47889,-0.13759 0.19844,0 0.41804,0.0608 0.65352,0.18521 l -0.41804,0.94986 c -0.15875,-0.0661 -0.28575,-0.0979 -0.37835,-0.0979 -0.17727,0 -0.31221,0.0714 -0.41011,0.21695 -0.13758,0.20373 -0.20902,0.58473 -0.20902,1.14565 v 1.1721 h -1.35202 z m -4.51379,-1.32292 h 3.69887 v 1.03452 h -2.19868 v 0.83873 h 1.88118 v 0.97367 h -1.88118 v 1.96321 h -1.50019 z m -6.71777,3.8444 1.3335,-0.12171 c 0.0556,0.1561 0.13229,0.26987 0.23019,0.33602 0.10054,0.0661 0.23018,0.10054 0.39687,0.10054 0.17992,0 0.32015,-0.037 0.42069,-0.11642 0.0767,-0.0556 0.11641,-0.127 0.11641,-0.21166 0,-0.0952 -0.0503,-0.17198 -0.15081,-0.2249 -0.0714,-0.037 -0.26458,-0.082 -0.57679,-0.13758 -0.46567,-0.0794 -0.7911,-0.15611 -0.97367,-0.2249 -0.18256,-0.0688 -0.33337,-0.18521 -0.45773,-0.34925 -0.12435,-0.16404 -0.1852,-0.35189 -0.1852,-0.56091 0,-0.23019 0.0661,-0.42863 0.20108,-0.59267 0.13494,-0.16669 0.32015,-0.29104 0.55562,-0.37306 0.23548,-0.082 0.55034,-0.12436 0.94721,-0.12436 0.41804,0 0.72496,0.0317 0.9234,0.0952 0.19844,0.0635 0.36512,0.1614 0.49742,0.29634 0.13229,0.13493 0.24341,0.31485 0.33072,0.54239 l -1.27,0.12171 c -0.0318,-0.11112 -0.0873,-0.19315 -0.16404,-0.24606 -0.10583,-0.0688 -0.23283,-0.10319 -0.381,-0.10319 -0.15081,0 -0.26193,0.0265 -0.33073,0.082 -0.0688,0.0556 -0.10318,0.11906 -0.10318,0.19579 0,0.0873 0.045,0.15081 0.12964,0.19315 0.0873,0.045 0.27781,0.0847 0.5715,0.11906 0.44715,0.0503 0.77788,0.12171 0.99748,0.21167 0.21696,0.09 0.38365,0.21696 0.50006,0.38364 0.11642,0.16669 0.17463,0.34925 0.17463,0.54769 0,0.20108 -0.0609,0.39688 -0.18256,0.58738 -0.12171,0.1905 -0.31486,0.34131 -0.5768,0.45508 -0.26193,0.11377 -0.62177,0.16933 -1.0742,0.16933 -0.6403,0 -1.09538,-0.09 -1.3679,-0.27252 -0.28046,-0.18521 -0.45508,-0.4445 -0.53181,-0.77787 z m -4.44765,0 1.3335,-0.12171 c 0.0556,0.1561 0.13229,0.26987 0.23019,0.33602 0.10054,0.0661 0.23019,0.10054 0.39687,0.10054 0.17992,0 0.32015,-0.037 0.41805,-0.11642 0.0767,-0.0556 0.11641,-0.127 0.11641,-0.21166 0,-0.0952 -0.0503,-0.17198 -0.15081,-0.2249 -0.0714,-0.037 -0.26458,-0.082 -0.57679,-0.13758 -0.46567,-0.0794 -0.78846,-0.15611 -0.97367,-0.2249 -0.18256,-0.0688 -0.33337,-0.18521 -0.45773,-0.34925 -0.12435,-0.16404 -0.18521,-0.35189 -0.18521,-0.56091 0,-0.23019 0.0661,-0.42863 0.20109,-0.59267 0.13494,-0.16669 0.32014,-0.29104 0.55562,-0.37306 0.23548,-0.082 0.55034,-0.12436 0.94721,-0.12436 0.41804,0 0.72496,0.0317 0.9234,0.0952 0.19843,0.0635 0.36512,0.1614 0.49741,0.29634 0.1323,0.13493 0.24342,0.31485 0.33073,0.54239 l -1.27264,0.12171 c -0.0317,-0.11112 -0.0873,-0.19315 -0.16404,-0.24606 -0.10584,-0.0688 -0.23284,-0.10319 -0.381,-0.10319 -0.15082,0 -0.26194,0.0265 -0.33073,0.082 -0.0688,0.0529 -0.10319,0.11906 -0.10319,0.19579 0,0.0873 0.045,0.15081 0.12964,0.19315 0.0873,0.045 0.27782,0.0847 0.5715,0.11906 0.44715,0.0503 0.77788,0.12171 0.99748,0.21167 0.21696,0.09 0.38365,0.21696 0.50007,0.38364 0.11641,0.16669 0.17462,0.34925 0.17462,0.54769 0,0.20108 -0.0608,0.39688 -0.18256,0.58738 -0.12171,0.1905 -0.31486,0.34131 -0.57679,0.45508 -0.26194,0.11377 -0.62177,0.16933 -1.07421,0.16933 -0.64029,0 -1.09802,-0.09 -1.3679,-0.27252 -0.27516,-0.18521 -0.44979,-0.4445 -0.52652,-0.77787 z m -2.0611,-1.08215 c -0.0265,-0.25929 -0.0979,-0.44714 -0.21167,-0.55827 -0.11377,-0.11112 -0.26194,-0.16933 -0.44714,-0.16933 -0.21432,0 -0.3863,0.0847 -0.5133,0.254 -0.082,0.10583 -0.13229,0.26193 -0.1561,0.47096 h 1.32821 z m 1.36789,0.63765 h -2.69875 c 0.0238,0.21431 0.082,0.37306 0.17727,0.47889 0.12965,0.15082 0.29898,0.2249 0.51065,0.2249 0.13229,0 0.25929,-0.0318 0.37835,-0.0979 0.0741,-0.0423 0.15082,-0.11377 0.23548,-0.21696 l 1.32557,0.12171 c -0.20373,0.34925 -0.44715,0.6006 -0.7329,0.75406 -0.28575,0.15081 -0.6985,0.22754 -1.23296,0.22754 -0.46566,0 -0.83079,-0.0635 -1.09802,-0.19579 -0.26458,-0.12965 -0.48683,-0.33602 -0.66146,-0.62177 -0.17462,-0.2831 -0.26193,-0.61913 -0.26193,-1.00013 0,-0.54504 0.17462,-0.98689 0.52652,-1.32556 0.35189,-0.33602 0.83608,-0.50535 1.4552,-0.50535 0.50271,0 0.89959,0.0767 1.18798,0.22754 0.29105,0.15081 0.5133,0.37042 0.66675,0.65617 0.15082,0.28839 0.22755,0.66145 0.22755,1.12183 v 0.15081 z m -6.41614,-3.3999 h 1.34673 v 4.81013 h -1.34673 z m -2.34421,2.76225 c -0.0265,-0.25929 -0.0979,-0.44714 -0.21168,-0.55827 -0.11377,-0.11112 -0.26193,-0.16933 -0.44979,-0.16933 -0.21431,0 -0.38629,0.0847 -0.51329,0.254 -0.082,0.10583 -0.13229,0.26193 -0.1561,0.47096 h 1.33086 z m 1.36525,0.63765 h -2.69876 c 0.0238,0.21431 0.082,0.37306 0.17727,0.47889 0.12965,0.15082 0.29898,0.2249 0.51065,0.2249 0.13229,0 0.25929,-0.0318 0.37835,-0.0979 0.0741,-0.0423 0.15081,-0.11377 0.23549,-0.21696 l 1.32556,0.12171 c -0.20373,0.34925 -0.44714,0.6006 -0.73289,0.75406 -0.28575,0.15081 -0.69851,0.22754 -1.23297,0.22754 -0.46567,0 -0.83079,-0.0635 -1.09802,-0.19579 -0.26459,-0.12965 -0.48685,-0.33602 -0.66147,-0.62177 -0.17463,-0.2831 -0.26194,-0.61913 -0.26194,-1.00013 0,-0.54504 0.17727,-0.98689 0.52653,-1.32556 0.3519,-0.33602 0.83609,-0.50535 1.45521,-0.50535 0.50271,0 0.89959,0.0767 1.18799,0.22754 0.29104,0.15081 0.51329,0.37042 0.6641,0.65617 0.15082,0.28839 0.22755,0.66145 0.22755,1.12183 v 0.15081 z m -7.307816,-2.07698 h 1.25941 v 0.56885 c 0.12171,-0.24871 0.24607,-0.41804 0.375706,-0.51064 0.12965,-0.0926 0.2884,-0.13759 0.4789,-0.13759 0.19845,0 0.41805,0.0608 0.65353,0.18521 l -0.41804,0.94986 c -0.15875,-0.0661 -0.28576,-0.0979 -0.37837,-0.0979 -0.17462,0 -0.3122,0.0714 -0.410096,0.21695 -0.13758,0.20373 -0.20902,0.58473 -0.20902,1.14565 v 1.1721 h -1.35202 z m -2.53471,0 h 1.34673 v 3.48721 h -1.34673 z m 0,-1.32292 h 1.34673 v 0.90752 h -1.34673 z m -7.75494,0 h 1.42081 l 0.51065,2.68552 0.74877,-2.68552 h 1.41023 l 0.75406,2.68817 0.51329,-2.68817 h 1.41288 l -1.06627,4.81013 h -1.46844 l -0.84931,-3.02948 -0.84402,3.02948 h -1.46579 z"
       id="path130" />
    <path
       inkscape:connector-curvature="0"
       style="fill:#000000;stroke-width:0.00264583"
       d="m 100.44952,54.218465 c -0.16669,-0.11112 -0.36248,-0.14023 -0.571496,-0.14023 -0.21432,0 -0.381,0.045 -0.52917,0.14023 z m -15.816796,2.14313 c 0,0.37041 0.0423,0.98689 0.29898,1.28587 0.16405,0.19315 0.33602,0.26988 0.59002,0.26988 0.18521,0 0.29369,-0.0741 0.41011,-0.21696 0.23019,-0.28046 0.26458,-1.09538 0.26458,-1.4314 0,-0.35983 -0.037,-1.03717 -0.2831,-1.3335 -0.127,-0.15346 -0.24342,-0.24342 -0.4445,-0.24342 -0.23813,0 -0.38894,0.082 -0.53975,0.26194 -0.25665,0.29898 -0.29634,1.03981 -0.29634,1.40759 z m -18.22185,-2.16959 c 0,0.77788 0.082,2.05846 0.61913,2.68552 0.41275,0.48154 0.94456,0.64559 1.57162,0.64559 0.61119,0 1.17475,-0.14288 1.57956,-0.61913 0.53182,-0.62706 0.59796,-2.15635 0.59796,-2.92629 0,-0.75935 -0.09,-1.89177 -0.62177,-2.49502 -0.42333,-0.48154 -0.96573,-0.64294 -1.60073,-0.64294 -0.61648,0 -1.11654,0.17992 -1.524,0.64823 -0.53975,0.62706 -0.62177,1.92352 -0.62177,2.70404 z m -7.10406,-0.0132 c 0,-2.51619 0.64823,-4.93977 2.47914,-6.75481 1.82828,-1.81504 4.25186,-2.46063 6.78392,-2.46063 2.52677,0 5.01385,0.6059 6.85535,2.4183 1.81769,1.78858 2.46063,4.18306 2.46063,6.67279 0,1.70391 -0.24871,3.4925 -1.05833,5.01914 -0.72232,1.36525 -1.778,2.43417 -3.13267,3.18823 -1.50019,0.83609 -3.23056,1.11919 -4.93183,1.11919 -1.65894,0 -3.39725,-0.2249 -4.90538,-0.95515 -1.41816,-0.68527 -2.50825,-1.76212 -3.30729,-3.1062 -0.9234,-1.55575 -1.24354,-3.35757 -1.24354,-5.14086 z m 40.16904,4.33917 c 0.13229,0.0529 0.27781,0.0767 0.4445,0.0767 0.161396,0 0.314846,-0.0238 0.460366,-0.0767 z m 7.884606,-3.97933 v -5.00327 h 6.31825 v 0.46831 c 0.0688,-0.0397 0.13759,-0.0794 0.20902,-0.11377 0.86255,-0.44979 1.82827,-0.61648 2.794,-0.61648 1.39171,0 2.68023,0.40481 3.65125,1.42081 1.04246,1.09008 1.33086,2.63525 1.33086,4.08781 v 8.33173 h -6.64104 v -7.35806 c 0,-0.1614 -0.0185,-0.64294 -0.11377,-0.77523 -0.0608,-0.0688 -0.19315,-0.0714 -0.27517,-0.0714 -0.18256,0 -0.29898,0.0476 -0.41275,0.18785 -0.20902,0.25665 -0.24077,1.143 -0.24077,1.44992 v 6.56696 h -6.61988 v -3.76238 l -0.15875,0.27517 c -0.68791,1.18269 -1.60602,2.22515 -2.83104,2.87602 -1.33615,0.70909 -3.05066,0.87577 -4.542916,0.87577 -1.34938,0 -2.84428,-0.15346 -4.0693,-0.75141 -1.1086,-0.5424 -1.97379,-1.39171 -2.61673,-2.43682 -0.254,-0.41275 -0.45508,-0.84137 -0.61118,-1.28587 -0.24871,0.96044 -0.67734,1.86267 -1.37054,2.61937 -1.13507,1.2409 -2.59028,1.85473 -4.27832,1.85473 -0.75935,0 -1.50812,-0.12171 -2.21456,-0.40216 v 4.45029 h -6.66221 v -17.89112 h 6.33942 v 0.32808 c 0.79639,-0.40217 1.66423,-0.59002 2.55852,-0.59002 1.83885,0 3.37873,0.71437 4.45294,2.20927 0.5371,0.74612 0.90487,1.56104 1.13771,2.41564 0.32808,-0.98954 0.87841,-1.88912 1.68539,-2.66435 1.50019,-1.43933 3.47133,-1.96056 5.51656,-1.96056 1.465806,0 3.074476,0.18256 4.392106,0.86783 1.14565,0.59531 2.03465,1.47108 2.6379,2.60879 0.29369,0.55827 0.49742,1.16417 0.635,1.78859 z m 46.87623,-4.78632 v -0.21695 h 1.60867 v -1.651 l 6.61987,-3.3655 v 5.0165 h 2.39977 v 5.41602 h -2.39977 v 2.90777 c 0,0.0503 0,0.11906 0.003,0.1905 0.26723,-0.0397 0.57944,-0.13759 0.7911,-0.20373 l 1.30705,-0.4154 0.57414,5.35517 -0.97631,0.21431 c -1.07156,0.23548 -2.17223,0.381 -3.2729,0.381 -0.95514,0 -2.09021,-0.09 -2.94216,-0.55033 -0.74877,-0.40217 -1.29911,-1.02394 -1.63777,-1.79917 -0.40482,-0.92075 -0.46303,-2.19869 -0.46303,-3.19352 v -2.8866 h -1.60866 v -1.18534 l -0.77259,1.75419 -1.016,-0.42333 c -0.18785,-0.0794 -0.59002,-0.23548 -0.79904,-0.23548 -0.19843,0 -0.29898,0.0529 -0.40746,0.21696 -0.4392,0.65087 -0.48947,2.35479 -0.48947,3.10885 v 4.9239 h -6.6414 v -12.62857 l -2.80193,12.63121 h -6.52727 l -1.91559,-6.8236 -1.90235,6.82625 h -6.51934 l -3.9952,-17.89113 h 6.94531 l 0.94192,4.953 1.38112,-4.953 h 6.28915 l 1.39964,4.99269 0.95515,-4.99269 h 6.91885 l -0.95514,4.31007 h 6.13039 v 0.0794 c 0.51594,-0.23813 1.0795,-0.34132 1.65894,-0.34132 0.7329,0 1.44992,0.18786 2.11931,0.4789 z"
       id="path132" />
    <path
       inkscape:connector-curvature="0"
       style="fill:#ffffff;stroke-width:0.00264583"
       d="m 161.34605,46.336525 v 4.31007 h 2.39977 v 3.19352 h -2.39977 v 4.01902 c 0,0.48154 0.0476,0.80168 0.14023,0.96043 0.14287,0.24078 0.39687,0.36248 0.7567,0.36248 0.3228,0 0.77523,-0.0926 1.35732,-0.27781 l 0.32279,3.00831 c -1.08215,0.23813 -2.09286,0.35455 -3.03213,0.35455 -1.09008,0 -1.89441,-0.13759 -2.41035,-0.4154 -0.51329,-0.27781 -0.89429,-0.70115 -1.14565,-1.26471 -0.24606,-0.56621 -0.37041,-1.48431 -0.37041,-2.74902 v -3.99785 h -1.60867 v -3.19352 h 1.60867 v -2.08228 z m -16.11313,4.31007 h 4.10369 v 1.85208 c 0.39687,-0.80698 0.80433,-1.35996 1.22237,-1.66423 0.42334,-0.30163 0.93927,-0.45244 1.55575,-0.45244 0.65088,0 1.35732,0.20109 2.12461,0.60061 l -1.35731,3.08768 c -0.51594,-0.21431 -0.92869,-0.32014 -1.23032,-0.32014 -0.5715,0 -1.02129,0.23812 -1.33614,0.70644 -0.45244,0.6641 -0.67998,1.90764 -0.67998,3.72797 v 3.8153 h -4.40531 v -11.35327 z m -23.38917,-4.31007 h 4.62492 l 1.66158,8.74184 2.43682,-8.74184 h 4.58787 l 2.45534,8.75771 1.67481,-8.75771 h 4.60375 l -3.47663,15.66863 h -4.77837 l -2.76754,-9.86367 -2.74902,9.86367 h -4.77044 z m -13.36675,4.31007 h 4.08253 v 1.84943 c 0.60854,-0.75935 1.22237,-1.2991 1.84679,-1.62189 0.62441,-0.32544 1.38112,-0.48948 2.27541,-0.48948 1.2118,0 2.15636,0.35719 2.84163,1.07685 0.68262,0.71438 1.02394,1.82298 1.02394,3.32317 v 7.22048 h -4.40532 v -6.24946 c 0,-0.71438 -0.13229,-1.21708 -0.39687,-1.51342 -0.26458,-0.29633 -0.635,-0.4445 -1.11125,-0.4445 -0.52388,0 -0.95515,0.20109 -1.28058,0.59796 -0.32544,0.40217 -0.49213,1.11654 -0.49213,2.15106 v 5.45571 h -4.3815 v -11.35591 z m -6.4532,4.68312 c -0.0847,-0.84667 -0.31486,-1.44992 -0.68527,-1.81504 -0.37042,-0.36513 -0.85462,-0.54769 -1.460506,-0.54769 -0.6985,0 -1.25413,0.27781 -1.67482,0.82815 -0.26458,0.34396 -0.43391,0.8546 -0.50535,1.53458 z m 4.45031,2.07963 h -8.786836 c 0.082,0.69585 0.26723,1.21708 0.57414,1.56104 0.42069,0.49212 0.97631,0.73818 1.65894,0.73818 0.433916,0 0.844026,-0.10583 1.230316,-0.3175 0.23813,-0.13493 0.49477,-0.37306 0.76729,-0.71172 l 4.31538,0.39422 c -0.66146,1.13771 -1.45786,1.95792 -2.3892,2.45005 -0.93133,0.49741 -2.27278,0.74348 -4.013746,0.74348 -1.51606,0 -2.70404,-0.21167 -3.57452,-0.63765 -0.86519,-0.42333 -1.58485,-1.09802 -2.159,-2.02142 -0.56885,-0.92604 -0.8546,-2.01348 -0.8546,-3.25966 0,-1.77536 0.5715,-3.21734 1.71714,-4.31271 1.14036,-1.09802 2.72256,-1.64836 4.73869,-1.64836 1.637776,0 2.926306,0.24871 3.873516,0.74084 0.94722,0.49212 1.66953,1.20385 2.16695,2.14048 0.49477,0.93398 0.74083,2.15106 0.74083,3.65125 v 0.48948 z m -22.957926,-1.04775 c 0,0.90487 0.1905,1.57162 0.56886,2.00818 0.37835,0.43657 0.85989,0.65617 1.43933,0.65617 0.508,0 0.93133,-0.20638 1.27794,-0.62706 0.34131,-0.41804 0.51329,-1.12977 0.51329,-2.13254 0,-0.92605 -0.17992,-1.60338 -0.53446,-2.03994 -0.35983,-0.43392 -0.79375,-0.64823 -1.30969,-0.64823 -0.55827,0 -1.02129,0.2196 -1.39435,0.65617 -0.37571,0.4392 -0.56092,1.14564 -0.56092,2.12725 z m -4.39473,9.95097 v -15.66597 h 4.10369 v 1.67481 c 0.56621,-0.70644 1.08744,-1.18534 1.56104,-1.43404 0.635,-0.33602 1.34409,-0.50271 2.11667,-0.50271 1.52665,0 2.70404,0.57944 3.54277,1.7436 0.83344,1.16417 1.25148,2.6035 1.25148,4.31536 0,1.89177 -0.45508,3.33639 -1.36525,4.33123 -0.91017,0.99747 -2.05846,1.49225 -3.45017,1.49225 -0.67468,0 -1.28852,-0.11378 -1.8415,-0.33867 -0.55827,-0.23019 -1.05304,-0.56621 -1.4896,-1.01336 v 5.40015 h -4.42913 z m -13.82977,-12.12056 c 0,1.57956 0.29634,2.71727 0.889,3.40519 0.59532,0.68792 1.40229,1.03717 2.42359,1.03717 1.0451,0 1.86002,-0.33867 2.43416,-1.01336 0.57679,-0.67733 0.86254,-1.88912 0.86254,-3.64331 0,-1.47373 -0.30162,-2.54794 -0.89958,-3.22792 -0.6006,-0.68262 -1.41287,-1.02129 -2.43946,-1.02129 -0.98425,0 -1.77535,0.34661 -2.37066,1.03717 -0.60061,0.68791 -0.89959,1.83091 -0.89959,3.42635 z m -4.86568,-0.0106 c 0,-2.55587 0.71702,-4.54818 2.15106,-5.969 1.43404,-1.4261 3.43164,-2.13783 5.99281,-2.13783 2.62467,0 4.64608,0.70115 6.0669,2.09815 1.42081,1.39964 2.12989,3.36285 2.12989,5.88168 0,1.83092 -0.30691,3.33111 -0.92869,4.50057 -0.61912,1.16945 -1.5187,2.08227 -2.69081,2.73579 -1.17475,0.65352 -2.63525,0.97631 -4.38679,0.97631 -1.77535,0 -3.24908,-0.28046 -4.41589,-0.84138 -1.16417,-0.56621 -2.11138,-1.45521 -2.83369,-2.67229 -0.72231,-1.21708 -1.08479,-2.74108 -1.08479,-4.572 z"
       id="path134" />
    <rect
       style="opacity:1;fill:#490255;fill-opacity:1;stroke:#000000;stroke-width:0.1377869;stroke-linecap:round;stroke-linejoin:round;stroke-miterlimit:4;stroke-dasharray:none;stroke-dashoffset:0;stroke-opacity:1;paint-order:markers fill stroke"
       id="rect3759-37-3"
       width="18.453602"
       height="18.453602"
       x="204.67244"
       y="54.981102" />
    <rect
       style="opacity:1;fill:#490255;fill-opacity:1;stroke:#000000;stroke-width:0.1377869;stroke-linecap:round;stroke-linejoin:round;stroke-miterlimit:4;stroke-dasharray:none;stroke-dashoffset:0;stroke-opacity:1;paint-order:markers fill stroke"
       id="rect3761-59-6"
       width="3.6907201"
       height="11.256698"
       x="204.67244"
       y="43.724403" />
    <rect
       style="opacity:1;fill:#490255;fill-opacity:1;stroke:#000000;stroke-width:0.1377869;stroke-linecap:round;stroke-linejoin:round;stroke-miterlimit:4;stroke-dasharray:none;stroke-dashoffset:0;stroke-opacity:1;paint-order:markers fill stroke"
       id="rect3761-7-22-7"
       width="3.6907201"
       height="11.256698"
       x="219.43533"
       y="43.724419" />
    <rect
       style="opacity:1;fill:#490255;fill-opacity:1;stroke:#000000;stroke-width:0.1377869;stroke-linecap:round;stroke-linejoin:round;stroke-miterlimit:4;stroke-dasharray:none;stroke-dashoffset:0;stroke-opacity:1;paint-order:markers fill stroke"
       id="rect3761-5-89-5"
       width="3.6907201"
       height="11.256698"
       x="212.49677"
       y="43.724403" />
    <text
       xml:space="preserve"
       style="font-style:normal;font-variant:normal;font-weight:normal;font-stretch:normal;font-size:1.41111112px;line-height:125%;font-family:Verdana;-inkscape-font-specification:'Verdana, Normal';font-variant-ligatures:normal;font-variant-caps:normal;font-variant-numeric:normal;text-align:start;letter-spacing:0px;word-spacing:0px;writing-mode:lr-tb;text-anchor:start;fill:#000000;fill-opacity:1;stroke:none;stroke-width:0.26458332px;stroke-linecap:butt;stroke-linejoin:miter;stroke-opacity:1"
       x="42.298061"
       y="61.225388"
       id="text3897"><tspan
         sodipodi:role="line"
         id="tspan3895"
         x="42.298061"
         y="61.225388"
         style="font-size:14.11111069px;stroke-width:0.26458332px">+</tspan></text>
    <text
       xml:space="preserve"
       style="font-style:normal;font-variant:normal;font-weight:normal;font-stretch:normal;font-size:1.41111112px;line-height:125%;font-family:Verdana;-inkscape-font-specification:'Verdana, Normal';font-variant-ligatures:normal;font-variant-caps:normal;font-variant-numeric:normal;text-align:start;letter-spacing:0px;word-spacing:0px;writing-mode:lr-tb;text-anchor:start;fill:#000000;fill-opacity:1;stroke:none;stroke-width:0.26458332px;stroke-linecap:butt;stroke-linejoin:miter;stroke-opacity:1"
       x="179.39908"
       y="60.804104"
       id="text3897-3"><tspan
         sodipodi:role="line"
         id="tspan3895-5"
         x="179.39908"
         y="60.804104"
         style="font-size:14.11111069px;stroke-width:0.26458332px">=</tspan></text>
    <circle
       style="opacity:1;fill:none;fill-opacity:1;stroke:#000000;stroke-width:0.96499997;stroke-linecap:round;stroke-linejoin:round;stroke-miterlimit:4;stroke-dasharray:none;stroke-dashoffset:0;stroke-opacity:1;paint-order:markers fill stroke"
       id="path3917"
       cx="32.406342"
       cy="73.95359"
       r="2.7688236" />
    <circle
       style="opacity:1;fill:none;fill-opacity:1;stroke:#000000;stroke-width:0.96499997;stroke-linecap:round;stroke-linejoin:round;stroke-miterlimit:4;stroke-dasharray:none;stroke-dashoffset:0;stroke-opacity:1;paint-order:markers fill stroke"
       id="path3917-6"
       cx="34.107876"
       cy="77.990067"
       r="2.7688239" />
    <circle
       style="opacity:1;fill:none;fill-opacity:1;stroke:#000000;stroke-width:0.96499997;stroke-linecap:round;stroke-linejoin:round;stroke-miterlimit:4;stroke-dasharray:none;stroke-dashoffset:0;stroke-opacity:1;paint-order:markers fill stroke"
       id="path3917-2"
       cx="35.444221"
       cy="82.383896"
       r="2.7688239" />
    <circle
       style="opacity:1;fill:none;fill-opacity:1;stroke:#000000;stroke-width:0.96499997;stroke-linecap:round;stroke-linejoin:round;stroke-miterlimit:4;stroke-dasharray:none;stroke-dashoffset:0;stroke-opacity:1;paint-order:markers fill stroke"
       id="path3917-9"
       cx="37.448746"
       cy="85.986664"
       r="2.7688239" />
    <circle
       style="opacity:1;fill:none;fill-opacity:1;stroke:#000000;stroke-width:0.96499997;stroke-linecap:round;stroke-linejoin:round;stroke-miterlimit:4;stroke-dasharray:none;stroke-dashoffset:0;stroke-opacity:1;paint-order:markers fill stroke"
       id="path3917-1"
       cx="38.138405"
       cy="90.001076"
       r="2.7688239" />
    <circle
       style="opacity:1;fill:#490255;fill-opacity:1;stroke:#000000;stroke-width:0.96499997;stroke-linecap:round;stroke-linejoin:round;stroke-miterlimit:4;stroke-dasharray:none;stroke-dashoffset:0;stroke-opacity:1;paint-order:markers fill stroke"
       id="path4757"
       cx="38.646088"
       cy="98.430809"
       r="7.4835467" />
    <circle
       style="opacity:1;fill:none;fill-opacity:1;stroke:#000000;stroke-width:0.96499997;stroke-linecap:round;stroke-linejoin:round;stroke-miterlimit:4;stroke-dasharray:none;stroke-dashoffset:0;stroke-opacity:1;paint-order:markers fill stroke"
       id="path3917-27"
       cx="223.25383"
       cy="74.70417"
       r="2.7688239" />
    <path
       style="opacity:1;fill:none;fill-opacity:1;stroke:#000000;stroke-width:0.96499997;stroke-linecap:round;stroke-linejoin:round;stroke-miterlimit:4;stroke-dasharray:none;stroke-dashoffset:0;stroke-opacity:1;paint-order:markers fill stroke"
       id="path3917-6-0"
       sodipodi:type="arc"
       sodipodi:cx="225.35626"
       sodipodi:cy="78.406563"
       sodipodi:rx="2.7688241"
       sodipodi:ry="2.7688241"
       sodipodi:start="2.9005803"
       sodipodi:end="5.5344494"
       d="m 222.66747,79.067442 a 2.7688241,2.7688241 0 0 1 1.37382,-3.097523 2.7688241,2.7688241 0 0 1 3.34327,0.551868"
       sodipodi:open="true" />
  </g>
</svg>
